<svg width="34" height="34" viewBox="0 0 34 34" fill="none" xmlns="http://www.w3.org/2000/svg">
<path d="M9.24374 29.75C8.65346 29.75 8.15173 29.5434 7.73853 29.1302C7.32534 28.717 7.11874 28.2153 7.11874 27.625V7.4375H5.66666V5.3125H12.325V4.25H21.675V5.3125H28.3333V7.4375H26.8812V27.625C26.8812 28.1917 26.6687 28.6875 26.2437 29.1125C25.8187 29.5375 25.3229 29.75 24.7562 29.75H9.24374ZM24.7562 7.4375H9.24374V27.625H24.7562V7.4375ZM12.9979 24.5792H15.1229V10.4479H12.9979V24.5792ZM18.8771 24.5792H21.0021V10.4479H18.8771V24.5792ZM9.24374 7.4375V27.625V7.4375Z" fill="black"/>
</svg>
